<svg width="16" height="12" viewBox="0 0 16 12" fill="none" xmlns="http://www.w3.org/2000/svg">
<path fill-rule="evenodd" clip-rule="evenodd" d="M7.99993 5.882L0.00292969 1.884C0.0325338 1.37444 0.255838 0.895488 0.627107 0.545227C0.998377 0.194965 1.48951 -9.35173e-05 1.99993 3.36349e-08H13.9999C14.5103 -9.35173e-05 15.0015 0.194965 15.3728 0.545227C15.744 0.895488 15.9673 1.37444 15.9969 1.884L7.99993 5.882ZM8 8.11798L16 4.11798V9.99998C16 10.5304 15.7893 11.0391 15.4142 11.4142C15.0391 11.7893 14.5304 12 14 12H2C1.46957 12 0.960859 11.7893 0.585786 11.4142C0.210714 11.0391 0 10.5304 0 9.99998V4.11798L8 8.11798Z" fill="#1493A5"/>
</svg>
