<svg width="130" height="130" viewBox="0 0 130 130" fill="none" xmlns="http://www.w3.org/2000/svg">
<g clip-path="url(#clip0_343_2524)">
<path d="M58.7563 57.1875C58.7563 58.4307 58.2625 59.623 57.3834 60.5021C56.5043 61.3811 55.312 61.875 54.0688 61.875C52.8256 61.875 51.6334 61.3811 50.7543 60.5021C49.8752 59.623 49.3813 58.4307 49.3813 57.1875C49.3813 55.9443 49.8752 54.752 50.7543 53.8729C51.6334 52.9939 52.8256 52.5 54.0688 52.5C55.312 52.5 56.5043 52.9939 57.3834 53.8729C58.2625 54.752 58.7563 55.9443 58.7563 57.1875V57.1875Z" fill="#DADADA"/>
<path d="M46.2563 43.125C44.5987 43.125 43.009 43.7835 41.8369 44.9556C40.6648 46.1277 40.0063 47.7174 40.0063 49.375V80.625C40.0063 82.2826 40.6648 83.8723 41.8369 85.0444C43.009 86.2165 44.5987 86.875 46.2563 86.875H83.7563C85.414 86.875 87.0037 86.2165 88.1758 85.0444C89.3479 83.8723 90.0063 82.2826 90.0063 80.625V49.375C90.0063 47.7174 89.3479 46.1277 88.1758 44.9556C87.0037 43.7835 85.414 43.125 83.7563 43.125H46.2563V43.125ZM83.7563 46.25C84.5851 46.25 85.38 46.5792 85.9661 47.1653C86.5521 47.7513 86.8813 48.5462 86.8813 49.375V69.6875L75.0782 63.6031C74.7852 63.4563 74.4534 63.4054 74.1298 63.4576C73.8062 63.5097 73.5072 63.6623 73.2751 63.8937L61.6813 75.4875L53.3688 69.95C53.0687 69.7502 52.7087 69.6603 52.3499 69.6956C51.9911 69.7309 51.6555 69.8893 51.4001 70.1437L43.1313 77.5V49.375C43.1313 48.5462 43.4606 47.7513 44.0466 47.1653C44.6327 46.5792 45.4275 46.25 46.2563 46.25H83.7563Z" fill="#DADADA"/>
</g>
<rect x="1" y="1" width="128" height="128" rx="7" stroke="#CDCDCD" stroke-width="2" stroke-dasharray="5 5"/>
<defs>
<clipPath id="clip0_343_2524">
<rect width="50" height="50" fill="white" transform="translate(40 40)"/>
</clipPath>
</defs>
</svg>
