<svg width="12" height="10" viewBox="0 0 12 10" fill="none" xmlns="http://www.w3.org/2000/svg">
<path fill-rule="evenodd" clip-rule="evenodd" d="M5.99957 0.999786C5.99957 0.734622 5.89426 0.480314 5.70679 0.292787C5.51926 0.105316 5.26495 0 4.99979 0C4.73462 0 4.48031 0.105316 4.29279 0.292787L0.292787 4.29279C0.105316 4.48031 0 4.73462 0 4.99979C0 5.26495 0.105316 5.51926 0.292787 5.70679L4.29279 9.70679C4.48139 9.88894 4.73399 9.98974 4.99619 9.98746C5.25838 9.98518 5.5092 9.88001 5.6946 9.6946C5.88001 9.5092 5.98518 9.25838 5.98746 8.99619C5.98974 8.73399 5.88894 8.48139 5.70679 8.29279L2.41379 4.99979L5.70679 1.70679C5.89426 1.51926 5.99957 1.26495 5.99957 0.999786ZM11.9996 0.999786C11.9996 0.734622 11.8943 0.480314 11.7068 0.292787C11.5193 0.105316 11.265 0 10.9998 0C10.7346 0 10.4803 0.105316 10.2928 0.292787L6.29279 4.29279C6.10532 4.48031 6 4.73462 6 4.99979C6 5.26495 6.10532 5.51926 6.29279 5.70679L10.2928 9.70679C10.4814 9.88894 10.734 9.98974 10.9962 9.98746C11.2584 9.98518 11.5092 9.88001 11.6946 9.6946C11.88 9.5092 11.9852 9.25838 11.9875 8.99619C11.9897 8.73399 11.8889 8.48139 11.7068 8.29279L8.41379 4.99979L11.7068 1.70679C11.8943 1.51926 11.9996 1.26495 11.9996 0.999786Z" fill="#0A4660"/>
</svg>
