<svg width="24" height="26" viewBox="0 0 24 26" fill="none" xmlns="http://www.w3.org/2000/svg">
<path fill-rule="evenodd" clip-rule="evenodd" d="M4.00005 11.4V8.20001C4.00005 6.07828 4.8429 4.04345 6.34319 2.54316C7.84349 1.04287 9.87832 0.200012 12 0.200012C14.1218 0.200012 16.1566 1.04287 17.6569 2.54316C19.1572 4.04345 20 6.07828 20 8.20001V11.4C20.8487 11.4 21.6627 11.7372 22.2628 12.3373C22.8629 12.9374 23.2 13.7513 23.2 14.6V22.6C23.2 23.4487 22.8629 24.2626 22.2628 24.8628C21.6627 25.4629 20.8487 25.8 20 25.8H4.00005C3.15136 25.8 2.33742 25.4629 1.73731 24.8628C1.13719 24.2626 0.800049 23.4487 0.800049 22.6V14.6C0.800049 13.7513 1.13719 12.9374 1.73731 12.3373C2.33742 11.7372 3.15136 11.4 4.00005 11.4ZM16.8 8.20001V11.4H7.20005V8.20001C7.20005 6.92697 7.70576 5.70607 8.60594 4.8059C9.50611 3.90573 10.727 3.40001 12 3.40001C13.2731 3.40001 14.494 3.90573 15.3942 4.8059C16.2943 5.70607 16.8 6.92697 16.8 8.20001Z" fill="#858585"/>
</svg>
