<svg width="12" height="10" viewBox="0 0 12 10" fill="none" xmlns="http://www.w3.org/2000/svg">
<path fill-rule="evenodd" clip-rule="evenodd" d="M0 8.98771C0 9.25288 0.105316 9.50718 0.292787 9.69471C0.480314 9.88218 0.734622 9.9875 0.999786 9.9875C1.26495 9.9875 1.51926 9.88218 1.70679 9.69471L5.70679 5.69471C5.89426 5.50718 5.99957 5.25288 5.99957 4.98771C5.99957 4.72255 5.89426 4.46824 5.70679 4.28071L1.70679 0.280712C1.51818 0.0985542 1.26558 -0.00224062 1.00339 3.78025e-05C0.741189 0.00231622 0.490376 0.107485 0.304968 0.292894C0.11956 0.478302 0.0143906 0.729114 0.0121121 0.991311C0.00983372 1.25351 0.110629 1.50611 0.292787 1.69471L3.58579 4.98771L0.292787 8.28071C0.105316 8.46824 0 8.72255 0 8.98771ZM6 8.98771C6 9.25288 6.10532 9.50718 6.29279 9.69471C6.48031 9.88218 6.73462 9.9875 6.99979 9.9875C7.26495 9.9875 7.51926 9.88218 7.70679 9.69471L11.7068 5.69471C11.8943 5.50718 11.9996 5.25288 11.9996 4.98771C11.9996 4.72255 11.8943 4.46824 11.7068 4.28071L7.70679 0.280712C7.51818 0.0985542 7.26558 -0.00224062 7.00339 3.78025e-05C6.74119 0.00231622 6.49038 0.107485 6.30497 0.292894C6.11956 0.478302 6.01439 0.729114 6.01211 0.991311C6.00983 1.25351 6.11063 1.50611 6.29279 1.69471L9.58579 4.98771L6.29279 8.28071C6.10532 8.46824 6 8.72255 6 8.98771Z" fill="#0A4660"/>
</svg>
