<svg width="26" height="26" viewBox="0 0 26 26" fill="none" xmlns="http://www.w3.org/2000/svg">
<path fill-rule="evenodd" clip-rule="evenodd" d="M9.6 3.20123C7.90261 3.20123 6.27475 3.87551 5.07452 5.07574C3.87428 6.27598 3.2 7.90384 3.2 9.60123C3.2 11.2986 3.87428 12.9265 5.07452 14.1267C6.27475 15.3269 7.90261 16.0012 9.6 16.0012C11.2974 16.0012 12.9253 15.3269 14.1255 14.1267C15.3257 12.9265 16 11.2986 16 9.60123C16 7.90384 15.3257 6.27598 14.1255 5.07574C12.9253 3.87551 11.2974 3.20123 9.6 3.20123ZM1.81538e-07 9.60123C-0.000192624 8.09035 0.356228 6.60077 1.04027 5.25361C1.72432 3.90646 2.71668 2.73978 3.93663 1.84847C5.15659 0.957151 6.5697 0.366366 8.06103 0.124159C9.55237 -0.118048 11.0798 -0.00483599 12.5191 0.454586C13.9585 0.914009 15.269 1.70667 16.3443 2.7681C17.4195 3.82953 18.229 5.12976 18.707 6.56304C19.1849 7.99632 19.3179 9.52217 19.0949 11.0165C18.872 12.5108 18.2995 13.9315 17.424 15.1628L25.1312 22.87C25.4227 23.1718 25.5839 23.576 25.5803 23.9955C25.5766 24.415 25.4084 24.8163 25.1117 25.1129C24.8151 25.4096 24.4138 25.5779 23.9942 25.5815C23.5747 25.5852 23.1706 25.4239 22.8688 25.1324L15.1632 17.4268C13.727 18.4481 12.0374 19.0543 10.2795 19.179C8.52161 19.3038 6.76332 18.9422 5.19728 18.134C3.63124 17.3258 2.3179 16.1021 1.40116 14.597C0.484416 13.0919 -0.000342481 11.3635 1.81538e-07 9.60123Z" fill="#858585"/>
</svg>
