<svg width="50" height="50" viewBox="0 0 50 50" fill="none" xmlns="http://www.w3.org/2000/svg">
<path fill-rule="evenodd" clip-rule="evenodd" d="M42.2954 0H7.70462C3.4495 0 0 3.4495 0 7.70462V42.2954C0 46.5504 3.4495 50 7.70462 50H42.2954C46.5504 50 50 46.5504 50 42.2954V7.70462C50 3.4495 46.5504 0 42.2954 0ZM26.6258 35.0015H24.5805C24.5805 35.0015 20.0679 35.2731 16.0931 31.1348C11.7587 26.6218 7.93114 17.6665 7.93114 17.6665C7.93114 17.6665 7.71039 17.0796 7.9503 16.7955C8.21996 16.4763 8.95377 16.4558 8.95377 16.4558L13.8432 16.4239C13.8432 16.4239 14.3038 16.5006 14.6335 16.7428C14.9053 16.9427 15.0575 17.3161 15.0575 17.3161C15.0575 17.3161 15.8478 19.3147 16.8942 21.1226C18.9368 24.6521 19.8882 25.424 20.5817 25.0459C21.5922 24.4948 21.2892 20.0566 21.2892 20.0566C21.2892 20.0566 21.3076 18.4459 20.7802 17.7283C20.372 17.1728 19.602 17.0103 19.2619 16.965C18.9867 16.9282 19.4383 16.2896 20.0237 16.003C20.9035 15.572 22.457 15.5476 24.293 15.5663C25.7234 15.5809 26.1353 15.6702 26.6946 15.8051C27.9923 16.1184 27.9518 17.1224 27.8645 19.2886C27.8384 19.9358 27.8082 20.6869 27.8082 21.5542C27.8082 21.7496 27.8025 21.9578 27.7966 22.172C27.7662 23.2812 27.7314 24.5508 28.4617 25.0228C28.8362 25.2647 29.7524 25.0588 32.0435 21.1685C33.1292 19.3246 33.9438 17.1568 33.9438 17.1568C33.9438 17.1568 34.1213 16.7703 34.3978 16.6048C34.6805 16.4357 35.0623 16.4876 35.0623 16.4876L40.2073 16.4558C40.2073 16.4558 41.7535 16.2714 42.0037 16.9693C42.2662 17.7018 41.426 19.4121 39.324 22.2137C37.3277 24.8744 36.3575 25.8523 36.4487 26.7185C36.5152 27.3499 37.1457 27.922 38.3539 29.0433C40.8866 31.3942 41.5619 32.6287 41.7222 32.9218C41.7352 32.9455 41.7448 32.963 41.7517 32.9745C42.8852 34.854 40.4948 35.0015 40.4948 35.0015L35.9251 35.0653C35.9251 35.0653 34.9431 35.2596 33.6508 34.3721C32.9751 33.9083 32.3146 33.151 31.6852 32.4293C30.7227 31.3258 29.8331 30.3058 29.0737 30.5467C27.8002 30.9508 27.8402 33.6952 27.8402 33.6952C27.8402 33.6952 27.8495 34.2813 27.5592 34.5936C27.2434 34.9334 26.6258 35.0015 26.6258 35.0015Z" fill="#1493A5"/>
</svg>
