<svg width="50" height="50" viewBox="0 0 50 50" fill="none" xmlns="http://www.w3.org/2000/svg">
<path d="M22.0374 19.4351L30.1063 24.9999L22.0374 30.5647V19.4351ZM42 0C46.4183 0 50 3.58172 50 8V42C50 46.4183 46.4183 50 42 50H8C3.58172 50 0 46.4183 0 42V8C0 3.58172 3.58172 0 8 0H42ZM39.1998 20.9122C39.1998 17.5376 36.4642 14.802 33.0896 14.802H16.9104C13.5358 14.802 10.8002 17.5376 10.8002 20.9122V29.0878C10.8002 32.4624 13.5358 35.198 16.9104 35.198H33.0896C36.4642 35.198 39.1998 32.4624 39.1998 29.0878V20.9122Z" fill="#1493A5"/>
</svg>
